<?xml version="1.0" standalone="no"?>
<!DOCTYPE svg PUBLIC "-//W3C//DTD SVG 20010904//EN"
 "http://www.w3.org/TR/2001/REC-SVG-20010904/DTD/svg10.dtd">
<svg version="1.0" xmlns="http://www.w3.org/2000/svg"
 width="105.000000pt" height="105.000000pt" viewBox="0 0 105.000000 105.000000"
 preserveAspectRatio="xMidYMid meet">
<metadata>
Created by potrace 1.14, written by Peter Selinger 2001-2017
</metadata>
<g transform="translate(0.000000,105.000000) scale(0.100000,-0.100000)"
fill="#000000" stroke="none">
<path d="M449 1040 c-20 -4 -52 -14 -70 -23 -19 -8 -48 -18 -64 -21 -16 -3
-42 -15 -57 -26 -15 -11 -32 -20 -38 -20 -15 0 -130 -120 -130 -135 0 -8 -6
-20 -14 -28 -13 -13 -27 -51 -57 -157 -15 -51 -18 -137 -7 -179 17 -66 50
-139 64 -145 9 -3 13 -10 10 -15 -4 -5 -1 -15 6 -23 7 -7 19 -24 26 -38 7 -14
26 -34 42 -45 17 -11 30 -26 30 -33 0 -7 4 -11 9 -7 5 3 16 -3 23 -12 7 -10
25 -24 41 -30 15 -7 27 -17 27 -23 0 -6 4 -9 9 -5 5 3 12 1 16 -4 3 -6 12 -8
21 -4 8 3 22 -3 30 -13 9 -11 13 -13 9 -6 -3 6 -1 12 4 12 6 0 11 -4 11 -9 0
-5 7 -12 16 -15 8 -3 12 -2 9 4 -3 6 -2 10 4 10 5 0 11 -5 13 -12 2 -6 11 -12
20 -14 11 -1 15 3 11 14 -5 10 -3 13 6 8 18 -11 71 -14 71 -3 0 4 5 5 10 2 6
-4 7 -11 4 -17 -4 -7 -2 -8 5 -4 6 4 9 12 6 17 -4 5 3 9 14 9 12 0 21 -5 21
-12 0 -7 5 -6 13 4 17 22 72 39 85 26 6 -6 12 -6 17 3 5 8 4 10 -3 5 -7 -4
-12 -2 -12 4 0 8 9 10 26 6 16 -4 23 -3 20 3 -8 12 30 34 44 26 6 -4 7 1 3 11
-4 11 -3 15 4 11 6 -4 14 -1 16 5 4 10 8 9 16 -2 6 -8 11 -10 12 -5 1 6 2 15
4 20 1 6 3 15 3 21 1 7 11 14 23 17 14 4 18 10 13 18 -5 8 -2 11 8 6 10 -3 15
0 14 11 -1 11 5 16 17 14 11 -2 17 2 16 10 -5 23 12 59 23 52 8 -5 9 -1 5 10
-6 14 -3 17 9 12 15 -6 15 -4 3 11 -13 15 -12 16 6 9 16 -6 17 -5 8 5 -10 10
-9 16 4 31 10 11 11 18 5 18 -7 0 -12 -5 -12 -12 0 -6 -2 -9 -5 -7 -9 9 8 49
18 42 7 -4 8 0 4 11 -4 10 -4 23 0 29 10 16 10 57 0 57 -4 0 -5 5 -2 10 17 27
4 94 -35 190 -37 94 -48 111 -112 173 -65 64 -172 129 -218 132 -8 1 -26 5
-40 10 -31 10 -103 12 -151 5z"/>
<path d="M855 170 c-3 -5 -1 -10 4 -10 6 0 11 5 11 10 0 6 -2 10 -4 10 -3 0
-8 -4 -11 -10z"/>
<path d="M630 39 c0 -5 5 -7 10 -4 6 3 10 8 10 11 0 2 -4 4 -10 4 -5 0 -10 -5
-10 -11z"/>
</g>
</svg>
